<?xml version="1.0" standalone="no"?><!DOCTYPE svg PUBLIC "-//W3C//DTD SVG 1.1//EN" "http://www.w3.org/Graphics/SVG/1.1/DTD/svg11.dtd"><svg t="1638536667714" class="icon" viewBox="0 0 1024 1024" version="1.1" xmlns="http://www.w3.org/2000/svg" p-id="18947" xmlns:xlink="http://www.w3.org/1999/xlink" width="48" height="48"><defs><style type="text/css"></style></defs><path d="M844.8 896c25.6 0 51.2-19.2 51.2-51.2v-185.6h-51.2c-44.8 0-83.2-38.4-83.2-83.2s38.4-83.2 83.2-83.2h51.2V313.6c0-25.6-19.2-51.2-51.2-51.2h-134.4c0-70.4-57.6-128-128-128S448 185.6 448 256H313.6c-25.6 0-51.2 19.2-51.2 51.2V448C185.6 448 128 505.6 128 576s57.6 128 128 128v134.4c0 25.6 19.2 51.2 51.2 51.2h185.6v-51.2c0-44.8 38.4-83.2 83.2-83.2 44.8 0 83.2 38.4 83.2 83.2v57.6h185.6zM576 710.4c-70.4 0-128 57.6-128 128H307.2v-185.6H256c-44.8 0-83.2-38.4-83.2-83.2S211.2 492.8 256 492.8h51.2V307.2h185.6V256c0-44.8 38.4-83.2 83.2-83.2 44.8 0 83.2 38.4 83.2 83.2v51.2h185.6V448c-70.4 0-128 57.6-128 128s57.6 128 128 128v140.8H704c6.4-70.4-51.2-134.4-128-134.4z" fill="#8a8a8a" p-id="18948"></path></svg>