<svg t="1673077979375" class="icon" viewBox="0 0 1024 1024" version="1.1" xmlns="http://www.w3.org/2000/svg" p-id="2978" width="128" height="128"><path d="M408.01 183c-43.06 0-83.49 14.82-123.43 45.28-53.44 40.64-67.66 112.54-43.26 219.83 12.3 54.05-13.61 93.88-36.5 128.97-24.2 37.21-38.42 61.61-24.2 94.99 23.7 55.66 54.96 60.3 106.79 67.96 49.21 7.26 110.52 16.23 173.54 78.25 54.35 53.44 101.24 79.36 143.39 79.36 54.86 0 98.82-44.67 145.21-91.86 7.26-7.36 14.72-15.02 22.18-22.39 20.87-20.57 52.84-29.85 86.52-39.73 64.84-18.86 104.27-34.18 105.38-87.63 0.61-32.77-21.28-66.45-42.35-99.12-21.98-33.98-42.86-66.15-42.15-100.84 0.2-12.5 0.71-25.51 1.11-38.12 3.13-89.44 6.35-182.01-55.56-217-14.42-8.17-28.03-12.1-41.65-12.1-20.47 0-40.54 8.57-63.73 18.45-29.04 12.4-61.91 26.42-103.46 26.42-28.94 0-57.98-6.76-88.94-20.57C481.02 192.58 443.3 183 408.01 183z" fill="#FFF7D2" p-id="2979"></path><path d="M352.49 514.76c0 108.59 88.03 196.62 196.62 196.62s196.62-88.03 196.62-196.62-88.03-196.62-196.62-196.62-196.62 88.03-196.62 196.62z" fill="#FFDA00" p-id="2980"></path><path d="M496.24 723.05c-23.23 0-46.27-3.81-68.54-11.33-53.98-18.28-97.58-56.55-122.71-107.57-25.23-51.12-29.03-108.9-10.76-162.88 29.42-86.63 110.52-144.79 201.91-144.79 23.23 0 46.27 3.81 68.54 11.33 53.98 18.28 97.58 56.55 122.71 107.57 25.23 51.12 29.03 108.9 10.76 162.88-29.32 86.63-110.52 144.79-201.91 144.79z m-0.01-404.54c-81.91 0-154.7 52.15-181.1 129.82-33.89 99.84 19.77 208.58 119.72 242.48 19.99 6.74 40.63 10.21 61.38 10.21 81.91 0 154.7-52.15 181.1-129.82 16.4-48.34 13.04-100.27-9.56-146.01-22.6-45.84-61.71-80.07-110.05-96.47a189.74 189.74 0 0 0-61.49-10.21z" fill="#333333" p-id="2981"></path><path d="M435.13 451.68c-3.81 0-7.71-1.33-10.76-4.09-6.66-5.9-7.23-16.18-1.33-22.85 9.81-11.04 21.32-20.37 34.18-27.8 7.71-4.47 17.61-1.81 22.09 6 4.47 7.71 1.81 17.61-6 22.09-9.81 5.62-18.66 12.76-26.18 21.23-3.15 3.62-7.62 5.42-12 5.42z m12.75 173.07c-3.62 0-7.33-1.24-10.38-3.81-20.94-17.52-36.08-40.74-43.69-67.11-7.81-26.94-7.14-55.4 1.9-82.06 2.86-8.47 12.09-13.04 20.56-10.09 8.47 2.86 13.04 12.09 10.09 20.56-13.8 40.65-0.95 86.44 31.99 113.95 6.85 5.71 7.81 15.9 2 22.75-3.23 3.81-7.8 5.81-12.47 5.81z" fill="#FFFFFF" p-id="2982"></path><path d="M542.89 897.64c-52.36 0-107.1-28.84-167.35-88.06-48.93-48.07-94.43-54.74-138.41-61.21-51.02-7.52-103.76-15.23-136.13-91.39-10.66-25.13-11.9-49.79-3.71-75.4 6.76-20.94 18.75-39.32 30.27-57.12 19.04-29.23 35.51-54.55 28.18-86.63-12.09-53.02-15.04-97.77-9.04-136.8 7.62-49.88 30.08-89.29 66.73-117.19 45.98-35.03 93.2-51.98 144.22-51.98 39.98 0 81.49 10.28 130.7 32.27 23.23 10.38 44.65 15.42 65.3 15.42 29.89 0 54.17-10.38 79.77-21.23 24.27-10.38 49.41-21.04 78.06-21.04 20.94 0 41.22 5.71 61.88 17.33 37.79 21.32 60.93 57.31 70.83 110.05 8.09 42.74 6.38 90.25 4.76 136.23-0.38 12.28-0.86 23.8-1.05 35.22-0.38 18.75 15.61 43.41 32.46 69.4 22.75 34.84 48.36 74.35 47.41 119.28-0.76 38.94-16.94 69.59-47.98 91.1-25.04 17.33-56.55 26.46-84.34 34.56-26.18 7.62-50.93 14.85-62.35 26.18-6.76 6.66-13.71 13.71-20.47 20.56-23.23 23.61-47.22 48.07-73.87 66.83-32.19 22.58-63.51 33.62-95.87 33.62zM348.61 157.39c-43.06 0-83.49 14.82-123.43 45.28-53.44 40.64-67.66 112.54-43.26 219.83 12.3 54.05-13.61 93.88-36.5 128.97-24.2 37.21-38.42 61.61-24.2 94.99 23.7 55.66 54.96 60.3 106.79 67.96 49.21 7.26 110.52 16.23 173.54 78.25 54.35 53.44 101.24 79.36 143.39 79.36 54.86 0 98.82-44.67 145.21-91.86 7.26-7.36 14.72-15.02 22.18-22.39 20.87-20.57 52.84-29.85 86.52-39.73 64.84-18.86 104.27-34.18 105.38-87.63 0.6-32.77-21.28-66.45-42.35-99.12-21.98-33.98-42.86-66.15-42.15-100.84 0.2-12.5 0.71-25.51 1.11-38.12 3.13-89.44 6.35-182.01-55.56-217-14.42-8.17-28.03-12.1-41.65-12.1-20.47 0-40.54 8.57-63.73 18.45-29.04 12.4-61.91 26.42-103.46 26.42-28.94 0-57.98-6.76-88.94-20.57-45.88-20.57-83.6-30.15-118.89-30.15z" fill="#333333" p-id="2983"></path></svg>